<svg width="48" height="48" viewBox="0 0 48 48" fill="none" xmlns="http://www.w3.org/2000/svg">
<path d="M7.41683 22.5127C6.82092 20.5783 8.26725 18.6194 10.2913 18.6194H42.5486C44.5982 18.6194 46.0475 20.6244 45.4047 22.5705L43.6602 27.8526C42.7445 30.6252 40.1539 32.4978 37.234 32.4978H15.4895C12.5193 32.4978 9.89626 30.5612 9.02182 27.7227L7.41683 22.5127Z" stroke="black" stroke-width="1.50391"/>
<path d="M43.773 12.0656C44.7139 14.0186 45.245 16.0928 45.3474 18.1939H24.9675V0.877651C27.5026 0.954806 30.0016 1.42155 32.3449 2.25609C34.9196 3.17306 37.2524 4.51478 39.2125 6.20007C41.1723 7.88518 42.7199 9.87951 43.773 12.0656Z" stroke="black" stroke-width="1.50391"/>
<circle cx="16.0718" cy="42.0897" r="4.22685" stroke="black" stroke-width="1.50391"/>
<circle cx="35.0979" cy="42.0897" r="4.22685" stroke="black" stroke-width="1.50391"/>
<line x1="20.9022" y1="41.5437" x2="30.3252" y2="41.5437" stroke="black" stroke-width="1.50391"/>
<line x1="15.5548" y1="41.75" x2="25.0965" y2="32.7037" stroke="black" stroke-width="1.50391"/>
<line x1="5.73027" y1="11.9108" x2="35.6296" y2="41.7638" stroke="black" stroke-width="1.50391"/>
<line x1="24.7138" y1="18.2559" x2="38.3107" y2="4.93685" stroke="black" stroke-width="1.50391"/>
<line x1="6.16602" y1="12.2377" x2="0.716754" y2="12.2377" stroke="black" stroke-width="1.50391"/>
<rect x="44.8138" y="16.8416" width="1.15516" height="4.05291" transform="rotate(-7.81263 44.8138 16.8416)" fill="black"/>
<ellipse cx="45.9471" cy="21.26" rx="0.581004" ry="1.6709" transform="rotate(1.62774 45.9471 21.26)" fill="black"/>
</svg>
