<svg width="67" height="67" viewBox="0 0 67 67" fill="none" xmlns="http://www.w3.org/2000/svg">
<path fill-rule="evenodd" clip-rule="evenodd" d="M63.88 1.89682C58.1143 7.17562 40.8321 23.4963 40.7342 23.755C40.5443 24.2567 40.8203 24.7544 41.7456 25.5787L42.5593 26.3035L42.2452 26.5726C41.9954 26.7864 41.812 26.8289 41.3517 26.7798C41.0332 26.7458 38.5959 26.533 35.9355 26.3071L31.0985 25.8964L26.7968 27.8572L22.4952 29.8182L20.0175 29.3928C18.4666 29.1266 17.5397 28.9115 17.5397 28.8179C17.5397 28.7358 17.6266 28.4606 17.7328 28.2064C17.9876 27.5964 17.9763 27.2717 17.6903 26.9857C17.3823 26.6777 2.00861 20.5279 1.54704 20.528C0.820323 20.5283 0.411399 21.4197 0.909392 21.9177C1.0968 22.1051 7.36387 24.6905 14.6023 27.5663L15.8483 28.0614L11.6195 38.8716C9.29367 44.8172 7.33838 49.7658 7.27428 49.8687C7.17723 50.0247 6.72223 49.9019 4.52946 49.1283C3.08388 48.6182 1.74166 48.2011 1.54704 48.2013C1.10311 48.2017 0.678223 48.614 0.678223 49.0444C0.678223 49.5272 1.16425 49.8967 2.30362 50.2804C2.86082 50.468 4.32365 50.9724 5.55415 51.4011C8.44712 52.4092 8.24208 52.4939 9.25841 49.8715C9.8595 48.3205 10.053 47.9434 10.2248 47.9878C10.3431 48.0183 11.22 48.4837 12.1736 49.022L13.9075 50.0007L13.4525 50.8574C12.5822 52.4966 12.7938 54.2353 14.0236 55.5501C14.8585 56.4426 15.6659 56.7621 17.0462 56.7456L18.1618 56.7322L18.4286 57.4642C18.7476 58.3388 19.6447 59.3093 20.4978 59.7024C20.9559 59.9135 21.3324 59.97 22.2719 59.9682L23.4645 59.966L23.593 60.4431C23.9071 61.6096 25.135 62.8191 26.3364 63.1455C26.6378 63.2275 27.2754 63.2609 27.7968 63.2222L28.722 63.1535L28.81 63.5612C28.9565 64.2402 29.3294 64.8536 29.935 65.4119C30.9001 66.3014 31.2078 66.4146 32.6636 66.4146C33.8296 66.4146 34.0062 66.3819 34.5407 66.0677C35.2149 65.6714 35.9184 64.9367 36.3541 64.1738C36.5189 63.8852 36.6919 63.6488 36.7387 63.6482C36.7854 63.6476 37.1908 63.821 37.6396 64.0332C38.323 64.3566 38.6145 64.4194 39.4326 64.4194C40.2641 64.4195 40.5266 64.3611 41.1945 64.0273C42.468 63.3909 43.2275 62.3009 43.3718 60.9024L43.4405 60.2363H44.4234C45.2376 60.2363 45.5312 60.1749 46.1349 59.8785C47.3821 59.2659 48.2273 58.0767 48.3896 56.7054L48.4647 56.0709L49.3985 56.0746C50.5508 56.0791 51.2594 55.7925 52.1457 54.9634C52.8494 54.3052 53.2609 53.488 53.394 52.484L53.4819 51.8214L54.0885 51.8932C54.8461 51.9829 56.0057 51.6624 56.7324 51.1624C58.1526 50.1853 58.7246 48.2044 58.0825 46.4879C57.809 45.7568 56.9203 44.7343 56.2632 44.3945C56.0614 44.2902 55.8964 44.1327 55.8964 44.0444C55.8964 43.9562 56.3873 43.3955 56.9874 42.7987L58.0784 41.7132L59.2233 42.8337C60.8785 44.4534 60.693 44.4991 63.6384 41.7468C64.9375 40.5328 66.0813 39.4117 66.1799 39.2553C66.55 38.6694 65.9259 37.7821 65.2612 37.9491C65.1015 37.9894 64.0729 38.8636 62.9756 39.8921C61.8784 40.9205 60.9133 41.7484 60.831 41.7318C60.6834 41.7019 42.9959 24.3181 42.923 24.1311C42.9022 24.0779 47.8835 19.3537 53.9923 13.6329C60.1012 7.91225 65.3745 2.96128 65.7108 2.63087C66.3927 1.96079 66.4939 1.52149 66.0648 1.09236C65.5607 0.588313 65.1401 0.743155 63.88 1.89682ZM43.1909 28.1255C42.7551 28.5368 42.5533 28.637 42.1612 28.6366C41.893 28.6363 39.364 28.4344 36.5413 28.1877L31.4091 27.7394L27.2739 29.6181C22.1087 31.9648 21.7257 32.1664 21.3853 32.7172C21.0424 33.2721 21.0183 34.198 21.3298 34.8501C21.6601 35.5415 22.2058 35.886 23.0698 35.9485C23.758 35.9984 23.9301 35.9372 26.9538 34.5685C29.1007 33.5967 30.196 33.1642 30.361 33.2232C31.0843 33.4812 31.2914 34.2404 30.765 34.7035C30.4745 34.9592 25.327 37.3496 24.4281 37.6463C24.1645 37.7333 23.5784 37.8024 23.1259 37.7998C20.3026 37.7835 18.4237 34.7328 19.6628 32.1767C19.8688 31.752 20.0563 31.3701 20.0796 31.328C20.1469 31.2066 16.8699 30.67 16.7673 30.7856C16.6753 30.8892 10.892 45.6708 10.8201 45.9863C10.7632 46.2356 14.8553 48.5084 14.9849 48.2995C15.0402 48.2102 15.9708 46.6987 17.0528 44.9405C18.1346 43.1824 19.2393 41.5263 19.5074 41.2604C20.3434 40.4314 21.0402 40.1567 22.3021 40.1588C23.2352 40.1603 23.4921 40.2109 24.0479 40.5027C24.7266 40.8591 25.5016 41.6197 25.8188 42.2408C26.1117 42.8143 26.3078 43.9552 26.2173 44.5586L26.1343 45.1124H26.772C27.225 45.1124 27.6367 45.226 28.1944 45.5046C29.6321 46.223 30.3146 47.3333 30.3668 49.0382L30.3983 50.0679L31.1448 50.1435C32.4885 50.2795 33.6247 51.1186 34.2374 52.4276C34.4882 52.9639 34.5585 53.3206 34.5585 54.0586V55.0032L35.22 55.0903C36.6246 55.2754 37.7415 56.0695 38.3553 57.3195C38.6574 57.9346 38.7131 58.211 38.7131 59.0933C38.7131 60.0537 38.6733 60.2146 38.2232 61.0763C37.8408 61.8085 37.7702 62.0391 37.9015 62.1275C38.4281 62.4825 38.8284 62.6175 39.3544 62.6175C40.4101 62.6175 41.1598 62.1186 41.4626 61.2147C41.8394 60.0897 41.4412 59.2152 40.1896 58.4198C38.7117 57.4803 38.5285 57.1767 39.0443 56.521C39.4712 55.9781 39.8379 56.0783 41.8061 57.276C42.7951 57.8779 43.7924 58.4056 44.0226 58.4487C45.538 58.7333 46.9029 57.2911 46.5076 55.823C46.2893 55.0121 45.8798 54.6304 44.012 53.4967C41.7306 52.1119 41.6092 52.0107 41.6092 51.4943C41.6092 51.2498 41.7079 50.9838 41.8446 50.8602C42.2659 50.4789 42.7657 50.6066 44.1191 51.4413C48.6171 54.2157 48.6833 54.2511 49.3626 54.2511C50.0899 54.2511 50.7961 53.9145 51.192 53.3795C51.582 52.8523 51.6205 51.6961 51.2686 51.0769C50.9255 50.473 51.0856 50.587 47.4239 48.3384C45.354 47.0672 44.3858 46.4001 44.3059 46.1898C44.0886 45.6185 44.5451 44.9837 45.1731 44.9837C45.3021 44.9837 47.2028 46.0859 49.397 47.4329C51.5912 48.7799 53.5981 49.9459 53.8568 50.0238C54.794 50.3063 55.8358 49.8496 56.2914 48.9565C56.6427 48.268 56.5913 47.2714 56.1744 46.6858C55.9922 46.43 54.6386 45.521 52.3862 44.1416C48.0299 41.4738 48.0449 41.4849 48.0449 40.9426C48.0449 40.4301 48.3772 40.0926 48.882 40.0926C49.1234 40.0926 50.0731 40.5977 51.6652 41.5728C52.9946 42.3869 54.1283 43.0522 54.1848 43.0515C54.2413 43.0506 54.8491 42.4503 55.5354 41.7175L56.7834 40.3852L50.3016 33.9962C46.7367 30.4823 43.8004 27.6088 43.7765 27.6106C43.7525 27.6124 43.489 27.8441 43.1909 28.1255ZM32.7996 32.1411C32.5368 32.5161 32.5458 32.92 32.8245 33.2578C32.9984 33.4686 33.3863 33.5918 34.5263 33.7984L36.0029 34.066L38.8382 35.8144C44.0892 39.0527 44.9868 39.5778 45.2711 39.5778C45.6442 39.5778 46.1142 39.0655 46.1142 38.6587C46.1142 38.481 45.9839 38.2155 45.8246 38.0688C45.6652 37.9222 43.5367 36.5741 41.0943 35.0729L36.6537 32.3437L35.3126 32.0992C33.5154 31.7718 33.0528 31.7795 32.7996 32.1411ZM21.3363 42.1344C20.7162 42.416 20.8084 42.2833 17.4886 47.6744C16.0325 50.0391 14.8047 52.1676 14.7601 52.4046C14.4832 53.8811 15.8005 55.2094 17.2921 54.9574C18.1497 54.8126 18.6544 54.1663 21.3783 49.7252C22.7968 47.4129 24.0548 45.3323 24.1741 45.1014C24.2936 44.8705 24.3913 44.4073 24.3913 44.0722C24.3913 42.4409 22.8349 41.4536 21.3363 42.1344ZM25.5843 47.0968C25.3719 47.1917 25.048 47.4356 24.8644 47.6388C24.4685 48.0772 20.3206 54.7972 20.1224 55.3214C19.743 56.324 20.1863 57.4706 21.1393 57.9516C22.094 58.4335 23.0489 58.2732 23.7285 57.517C24.1674 57.0286 28.3159 50.2732 28.4985 49.7495C28.8382 48.775 28.2878 47.4759 27.3734 47.0939C26.8377 46.87 26.0898 46.8712 25.5843 47.0968ZM29.5744 52.1663C29.0247 52.5164 28.9463 52.6251 27.2322 55.4095C25.1879 58.7306 25.2225 58.6579 25.2915 59.4904C25.3862 60.6313 26.0903 61.3354 27.2312 61.4301C27.987 61.4928 28.4716 61.3143 28.9543 60.7956C29.1088 60.6295 30.0211 59.221 30.9815 57.6654C32.6569 54.9522 32.7279 54.8088 32.7279 54.1452C32.7279 52.7709 32.0593 52.0379 30.7384 51.9639C30.1394 51.9303 29.8718 51.9769 29.5744 52.1663ZM34.3079 56.9555C33.4169 57.1562 33.3828 57.1965 31.5463 60.2202C30.646 61.7024 30.5398 61.9451 30.5398 62.5194C30.5398 63.7735 31.4257 64.6769 32.6553 64.6769C33.3431 64.6769 33.8067 64.4701 34.2877 63.9483C34.8231 63.3676 36.8291 59.9462 36.9209 59.4573C37.2086 57.9237 35.8374 56.6108 34.3079 56.9555Z" fill="#111111"/>
</svg>
